<?xml version="1.0" encoding="UTF-8" standalone="no"?>
<!-- Created with Inkscape (http://www.inkscape.org/) -->

<svg
   version="1.1"
   id="svg2"
   width="128"
   height="127.93146"
   viewBox="0 0 128 127.93146"
   sodipodi:docname="logo128.svg"
   inkscape:version="1.2.2 (732a01da63, 2022-12-09)"
   xmlns:inkscape="http://www.inkscape.org/namespaces/inkscape"
   xmlns:sodipodi="http://sodipodi.sourceforge.net/DTD/sodipodi-0.dtd"
   xmlns="http://www.w3.org/2000/svg"
   xmlns:svg="http://www.w3.org/2000/svg">
  <defs
     id="defs6" />
  <sodipodi:namedview
     id="namedview4"
     pagecolor="#ffffff"
     bordercolor="#000000"
     borderopacity="0.25"
     inkscape:showpageshadow="2"
     inkscape:pageopacity="0.0"
     inkscape:pagecheckerboard="0"
     inkscape:deskcolor="#d1d1d1"
     showgrid="false"
     inkscape:zoom="2.3119077"
     inkscape:cx="85.859828"
     inkscape:cy="64.448939"
     inkscape:window-width="1920"
     inkscape:window-height="1017"
     inkscape:window-x="-8"
     inkscape:window-y="-8"
     inkscape:window-maximized="1"
     inkscape:current-layer="g8" />
  <g
     inkscape:groupmode="layer"
     inkscape:label="Image"
     id="g8"
     transform="translate(81.968937,4.7407407)">
    <g
       id="g847"
       transform="translate(-81.968937,-4.7407407)">
      <path
         style="fill:#a1e6e5"
         d="M 48,126.42392 C 36.841282,123.49332 28.088517,118.28072 18.903898,109.0961 5.5335281,95.725731 0,82.525251 0,64 0,45.474749 5.5335281,32.274269 18.903898,18.903898 32.274269,5.5335281 45.474749,0 64,0 82.525251,0 95.725731,5.5335281 109.0961,18.903898 122.46647,32.274269 128,45.474749 128,64 c 0,18.525251 -5.53353,31.725731 -18.9039,45.0961 -9.329796,9.3298 -18.061562,14.46698 -29.556199,17.38887 C 72.041763,128.39096 55.366932,128.35869 48,126.42392 Z m 27.720693,-5.00126 C 96.124004,117.20824 113.51063,101.23489 119.55481,81.15162 125.53825,61.270158 119.42793,38.464602 104.17124,23.735507 75.710374,-3.7411376 29.767398,4.1458531 12.431609,39.484369 1.1236123,62.535401 5.2563466,87.475831 23.389246,105.61206 c 14.318664,14.32129 32.68201,19.86931 52.331447,15.8106 z M 52.347877,113.58019 C 40.551944,110.71893 28.561208,102.22476 22.096381,92.150197 20.393372,89.496287 19,87.026802 19,86.662453 19,86.298104 29.575,86 42.5,86 55.425,86 66,86.380256 66,86.845012 66,87.309769 65.1,88.504514 64,89.5 c -4.004214,3.623764 -0.803559,10.115467 3.75,7.605906 0.9625,-0.530453 4.890712,-4.149088 8.729359,-8.04141 L 83.458718,81.987547 70.729359,69.229869 C 63.728212,62.213146 58,56.140948 58,55.736096 58,55.331243 70.322516,55 85.383369,55 h 27.383371 l 0.60297,2.25 c 0.95619,3.567991 0.72837,12.181242 -0.47479,17.950779 -3.90811,18.740571 -19.95357,34.786031 -38.694141,38.694141 -6.741228,1.40579 -15.265983,1.28302 -21.852902,-0.31473 z M 15.460023,76.935315 C 14.121183,74.769027 13.782869,60.348557 14.940256,54.780524 17.644141,41.772496 28.710036,27.0907 40.574864,20.76953 58.928457,10.99137 81.483786,13.748175 96.975228,27.663013 101.81556,32.010734 110,43.002279 110,45.155036 110,45.619766 98.267339,46 83.92742,46 H 57.85484 l 2.07258,-2.634859 C 62.268758,40.388612 62.564027,37.964027 60.8,36.2 58.374333,33.774333 55.594812,35.170801 47.85294,42.704772 L 39.935554,50.409543 53.70438,64.204772 67.473206,78 H 41.79562 C 24.715895,78 15.897706,77.643502 15.460023,76.935315 Z"
         id="path861" />
      <path
         style="fill:#e8b3c9"
         d="M 48,126.42392 C 36.841282,123.49332 28.088517,118.28072 18.903898,109.0961 5.5335281,95.725731 0,82.525251 0,64 0,45.474749 5.5335281,32.274269 18.903898,18.903898 32.274269,5.5335281 45.474749,0 64,0 82.525251,0 95.725731,5.5335281 109.0961,18.903898 122.46647,32.274269 128,45.474749 128,64 c 0,18.525251 -5.53353,31.725731 -18.9039,45.0961 -9.329796,9.3298 -18.061562,14.46698 -29.556199,17.38887 C 72.041763,128.39096 55.366932,128.35869 48,126.42392 Z m 27.720693,-5.00126 C 96.124004,117.20824 113.51063,101.23489 119.55481,81.15162 125.53825,61.270158 119.42793,38.464602 104.17124,23.735507 75.710374,-3.7411376 29.767398,4.1458531 12.431609,39.484369 1.1236123,62.535401 5.2563466,87.475831 23.389246,105.61206 c 14.318664,14.32129 32.68201,19.86931 52.331447,15.8106 z M 52.347877,113.58019 C 40.551944,110.71893 28.561208,102.22476 22.096381,92.150197 20.393372,89.496287 19,87.026802 19,86.662453 19,86.298104 29.575,86 42.5,86 55.425,86 66,86.380256 66,86.845012 66,87.309769 65.1,88.504514 64,89.5 c -4.004214,3.623764 -0.803559,10.115467 3.75,7.605906 0.9625,-0.530453 4.890712,-4.149088 8.729359,-8.04141 L 83.458718,81.987547 70.729359,69.229869 C 63.728212,62.213146 58,56.140948 58,55.736096 58,55.331243 70.322516,55 85.383369,55 h 27.383371 l 0.60297,2.25 c 0.95619,3.567991 0.72837,12.181242 -0.47479,17.950779 -3.90811,18.740571 -19.95357,34.786031 -38.694141,38.694141 -6.741228,1.40579 -15.265983,1.28302 -21.852902,-0.31473 z M 15.480782,74.939448 c -0.359697,-1.133303 -0.64334,-5.883456 -0.630318,-10.555894 0.0838,-30.067528 25.68573,-52.134149 56.089072,-48.34386 14.605316,1.820798 29.483384,11.938983 36.372874,24.736239 L 110.12482,46 H 83.973518 57.822213 l 2.588893,-3.076725 C 61.834998,41.231076 63,39.431076 63,38.923275 63,37.624655 59.228902,34 57.877815,34 c -0.617202,0 -4.905558,3.692858 -9.529679,8.206351 l -8.407494,8.206351 12.529679,12.557553 C 59.361645,69.87691 65,75.859052 65,76.263904 65,76.668757 54.005324,77 40.567388,77 16.773707,77 16.117673,76.946115 15.480782,74.939448 Z"
         id="path859" />
      <path
         style="fill:#e0e18f"
         d="M 50,126.44497 C 26.634215,121.42659 6.4225298,101.02974 1.4993521,77.5 -8.0085042,32.058333 32.058333,-8.0085042 77.5,1.4993521 101.2732,6.4734683 121.52653,26.726803 126.50065,50.5 136.04271,96.105161 95.612769,136.24143 50,126.44497 Z m 26.200779,-4.53506 c 16.444817,-3.38282 32.404571,-15.91838 39.686091,-31.171352 4.60275,-9.641632 6.11872,-16.11426 6.09835,-26.037779 -0.0319,-15.535477 -5.89284,-29.539437 -17.0197,-40.666296 -22.884066,-22.8840631 -59.046974,-22.8840631 -81.931037,0 -22.80029276,22.800292 -22.82302629,59.108008 -0.05127,81.879767 7.504797,7.5048 17.608346,13.30582 27.233768,15.63646 6.651931,1.61066 19.065872,1.78227 25.983796,0.3592 z M 52.347877,113.58019 C 40.551944,110.71893 28.561208,102.22476 22.096381,92.150197 20.393372,89.496287 19,87.026802 19,86.662453 19,86.298104 29.575,86 42.5,86 55.425,86 66,86.380256 66,86.845012 66,87.309769 65.1,88.504514 64,89.5 c -4.004214,3.623764 -0.803559,10.115467 3.75,7.605906 0.9625,-0.530453 4.890712,-4.149088 8.729359,-8.04141 L 83.458718,81.987547 70.729359,69.229869 C 63.728212,62.213146 58,56.140948 58,55.736096 58,55.331243 70.322516,55 85.383369,55 h 27.383371 l 0.60297,2.25 c 0.95619,3.567991 0.72837,12.181242 -0.47479,17.950779 -3.90811,18.740571 -19.95357,34.786031 -38.694141,38.694141 -6.741228,1.40579 -15.265983,1.28302 -21.852902,-0.31473 z M 15.480782,74.939448 c -0.359697,-1.133303 -0.64334,-5.883456 -0.630318,-10.555894 0.0838,-30.067528 25.68573,-52.134149 56.089072,-48.34386 14.605316,1.820798 29.483384,11.938983 36.372874,24.736239 L 110.12482,46 H 83.973518 57.822213 l 2.588893,-3.076725 C 61.834998,41.231076 63,39.431076 63,38.923275 63,37.624655 59.228902,34 57.877815,34 c -0.617202,0 -4.905558,3.692858 -9.529679,8.206351 l -8.407494,8.206351 12.529679,12.557553 C 59.361645,69.87691 65,75.859052 65,76.263904 65,76.668757 54.005324,77 40.567388,77 16.773707,77 16.117673,76.946115 15.480782,74.939448 Z"
         id="path857" />
      <path
         style="fill:#dc89ac"
         d="M 50,126.44497 C 26.634215,121.42659 6.4225298,101.02974 1.4993521,77.5 -8.0085042,32.058333 32.058333,-8.0085042 77.5,1.4993521 101.2732,6.4734683 121.52653,26.726803 126.50065,50.5 136.04271,96.105161 95.612769,136.24143 50,126.44497 Z m 26.200779,-4.53506 c 16.444817,-3.38282 32.404571,-15.91838 39.686091,-31.171352 4.60275,-9.641632 6.11872,-16.11426 6.09835,-26.037779 -0.0319,-15.535477 -5.89284,-29.539437 -17.0197,-40.666296 -22.884066,-22.8840631 -59.046974,-22.8840631 -81.931037,0 -22.80029276,22.800292 -22.82302629,59.108008 -0.05127,81.879767 7.504797,7.5048 17.608346,13.30582 27.233768,15.63646 6.651931,1.61066 19.065872,1.78227 25.983796,0.3592 z M 48.836372,112.08116 C 41.784396,109.82587 36.888253,106.8549 30.627254,101.03188 26.252509,96.963164 20,89.04281 20,87.569825 20,87.256421 30.138472,87 42.529937,87 h 22.529938 l -2.200955,2.97695 c -1.863578,2.520625 -2.02474,3.3637 -1.051376,5.5 2.132943,4.6813 5.567745,3.397624 14.575439,-5.447221 L 84.5,82.059458 71.546468,69.06184 58.592937,56.064223 85.79713,55.782111 113.00132,55.5 113.13496,60 c 0.2457,8.273802 -0.23988,13.456554 -1.78014,19 -4.28406,15.418421 -17.631161,28.81373 -33.286321,33.40654 -7.429074,2.1795 -21.903517,2.01838 -29.232127,-0.32538 z M 15.480782,74.939448 c -0.359697,-1.133303 -0.64334,-5.883456 -0.630318,-10.555894 0.0838,-30.067528 25.68573,-52.134149 56.089072,-48.34386 14.605316,1.820798 29.483384,11.938983 36.372874,24.736239 L 110.12482,46 H 83.973518 57.822213 l 2.588893,-3.076725 C 61.834998,41.231076 63,39.431076 63,38.923275 63,37.624655 59.228902,34 57.877815,34 c -0.617202,0 -4.905558,3.692858 -9.529679,8.206351 l -8.407494,8.206351 12.529679,12.557553 C 59.361645,69.87691 65,75.859052 65,76.263904 65,76.668757 54.005324,77 40.567388,77 16.773707,77 16.117673,76.946115 15.480782,74.939448 Z"
         id="path855" />
      <path
         style="fill:#d4d55d"
         d="M 53.757207,127.03251 C 29.834343,122.67115 10.74831,106.22325 3.3333656,83.578411 1.0947105,76.741679 0.68812873,73.732411 0.68812873,64 c 0,-9.732411 0.40658177,-12.741679 2.64523687,-19.578411 C 9.6848495,25.0245 25.0245,9.6848495 44.421589,3.3333656 51.258321,1.0947105 54.267589,0.68812873 64,0.68812873 c 9.732411,0 12.741679,0.40658177 19.578411,2.64523687 C 102.9755,9.6848495 118.31515,25.0245 124.66663,44.421589 c 2.23866,6.836732 2.64524,9.846 2.64524,19.578411 0,9.732411 -0.40658,12.741679 -2.64524,19.578411 -8.285,25.301959 -30.912421,42.564829 -57.527736,43.888959 -4.751392,0.23639 -10.773151,0.0407 -13.381687,-0.43486 z m 28.132942,-6.67649 C 100.27134,114.29713 112.87793,101.749 119.29877,83.120851 130.24956,51.350465 110.14838,15.618801 77,7.9309608 47.956194,1.1950616 17.626729,18.687004 8.3908218,47.5 2.0496531,67.282364 6.8872728,88.86805 21.16238,104.48729 c 15.308532,16.74998 39.152223,22.98055 60.727769,15.86873 z M 48.836372,112.08116 C 41.784396,109.82587 36.888253,106.8549 30.627254,101.03188 26.252509,96.963164 20,89.04281 20,87.569825 20,87.256421 30.138472,87 42.529937,87 h 22.529938 l -2.200955,2.97695 c -1.863578,2.520625 -2.02474,3.3637 -1.051376,5.5 2.132943,4.6813 5.567745,3.397624 14.575439,-5.447221 L 84.5,82.059458 71.546468,69.06184 58.592937,56.064223 85.79713,55.782111 113.00132,55.5 113.13496,60 c 0.2457,8.273802 -0.23988,13.456554 -1.78014,19 -4.28406,15.418421 -17.631161,28.81373 -33.286321,33.40654 -7.429074,2.1795 -21.903517,2.01838 -29.232127,-0.32538 z M 15.480782,74.939448 c -0.359697,-1.133303 -0.64334,-5.883456 -0.630318,-10.555894 0.0838,-30.067528 25.68573,-52.134149 56.089072,-48.34386 14.605316,1.820798 29.483384,11.938983 36.372874,24.736239 L 110.12482,46 H 83.973518 57.822213 l 2.588893,-3.076725 C 61.834998,41.231076 63,39.431076 63,38.923275 63,37.624655 59.228902,34 57.877815,34 c -0.617202,0 -4.905558,3.692858 -9.529679,8.206351 l -8.407494,8.206351 12.529679,12.557553 C 59.361645,69.87691 65,75.859052 65,76.263904 65,76.668757 54.005324,77 40.567388,77 16.773707,77 16.117673,76.946115 15.480782,74.939448 Z"
         id="path853" />
      <path
         style="fill:#58d4d3"
         d="M 53.757207,127.03251 C 29.834343,122.67115 10.74831,106.22325 3.3333656,83.578411 1.0947105,76.741679 0.68812873,73.732411 0.68812873,64 c 0,-9.732411 0.40658177,-12.741679 2.64523687,-19.578411 C 9.6848495,25.0245 25.0245,9.6848495 44.421589,3.3333656 51.258321,1.0947105 54.267589,0.68812873 64,0.68812873 c 9.732411,0 12.741679,0.40658177 19.578411,2.64523687 C 102.9755,9.6848495 118.31515,25.0245 124.66663,44.421589 c 2.23866,6.836732 2.64524,9.846 2.64524,19.578411 0,9.732411 -0.40658,12.741679 -2.64524,19.578411 -8.285,25.301959 -30.912421,42.564829 -57.527736,43.888959 -4.751392,0.23639 -10.773151,0.0407 -13.381687,-0.43486 z m 28.132942,-6.67649 C 100.27134,114.29713 112.87793,101.749 119.29877,83.120851 130.24956,51.350465 110.14838,15.618801 77,7.9309608 47.956194,1.1950616 17.626729,18.687004 8.3908218,47.5 2.0496531,67.282364 6.8872728,88.86805 21.16238,104.48729 c 15.308532,16.74998 39.152223,22.98055 60.727769,15.86873 z M 15.480782,74.939448 c -0.359697,-1.133303 -0.64334,-5.883456 -0.630318,-10.555894 0.0838,-30.067528 25.68573,-52.134149 56.089072,-48.34386 14.605316,1.820798 29.483384,11.938983 36.372874,24.736239 L 110.12482,46 H 83.973518 57.822213 l 2.588893,-3.076725 C 61.834998,41.231076 63,39.431076 63,38.923275 63,37.624655 59.228902,34 57.877815,34 c -0.617202,0 -4.905558,3.692858 -9.529679,8.206351 l -8.407494,8.206351 12.529679,12.557553 C 59.361645,69.87691 65,75.859052 65,76.263904 65,76.668757 54.005324,77 40.567388,77 16.773707,77 16.117673,76.946115 15.480782,74.939448 Z"
         id="path851" />
      <path
         style="fill:#ce5788"
         d="M 53.757207,127.03251 C 29.834343,122.67115 10.74831,106.22325 3.3333656,83.578411 1.0947105,76.741679 0.68812873,73.732411 0.68812873,64 c 0,-9.732411 0.40658177,-12.741679 2.64523687,-19.578411 C 9.6848495,25.0245 25.0245,9.6848495 44.421589,3.3333656 51.258321,1.0947105 54.267589,0.68812873 64,0.68812873 c 9.732411,0 12.741679,0.40658177 19.578411,2.64523687 C 102.9755,9.6848495 118.31515,25.0245 124.66663,44.421589 c 2.23866,6.836732 2.64524,9.846 2.64524,19.578411 0,9.732411 -0.40658,12.741679 -2.64524,19.578411 -8.285,25.301959 -30.912421,42.564829 -57.527736,43.888959 -4.751392,0.23639 -10.773151,0.0407 -13.381687,-0.43486 z m 28.132942,-6.67649 C 100.27134,114.29713 112.87793,101.749 119.29877,83.120851 130.24956,51.350465 110.14838,15.618801 77,7.9309608 47.956194,1.1950616 17.626729,18.687004 8.3908218,47.5 2.0496531,67.282364 6.8872728,88.86805 21.16238,104.48729 c 15.308532,16.74998 39.152223,22.98055 60.727769,15.86873 z"
         id="path849" />
    </g>
  </g>
</svg>
