<?xml version="1.0" encoding="UTF-8" standalone="no"?>
<!-- Created with Inkscape (http://www.inkscape.org/) -->

<svg
   version="1.1"
   id="svg2"
   width="511.33334"
   height="342.34332"
   viewBox="0 0 511.33334 342.34332"
   sodipodi:docname="youtubeStandin.svg"
   inkscape:version="1.2.2 (732a01da63, 2022-12-09)"
   xmlns:inkscape="http://www.inkscape.org/namespaces/inkscape"
   xmlns:sodipodi="http://sodipodi.sourceforge.net/DTD/sodipodi-0.dtd"
   xmlns="http://www.w3.org/2000/svg"
   xmlns:svg="http://www.w3.org/2000/svg">
  <defs
     id="defs6" />
  <sodipodi:namedview
     id="namedview4"
     pagecolor="#ffffff"
     bordercolor="#000000"
     borderopacity="0.25"
     inkscape:showpageshadow="2"
     inkscape:pageopacity="0.0"
     inkscape:pagecheckerboard="0"
     inkscape:deskcolor="#d1d1d1"
     showgrid="false"
     inkscape:zoom="1.6347656"
     inkscape:cx="269.45759"
     inkscape:cy="182.90084"
     inkscape:window-width="1920"
     inkscape:window-height="1017"
     inkscape:window-x="-8"
     inkscape:window-y="-8"
     inkscape:window-maximized="1"
     inkscape:current-layer="g8" />
  <g
     inkscape:groupmode="layer"
     inkscape:label="Image"
     id="g8"
     transform="translate(-202.47551,-85.645973)">
    <g
       id="g324"
       transform="translate(202.47551,1.8351254)">
      <path
         style="fill:#ceceb8;stroke-width:1.33333"
         d="m 232.66667,425.82613 c -10.27227,-1.53848 -32.65191,-7.80461 -42.08856,-11.78449 -20.07495,-8.46655 -41.4929,-22.49141 -53.84871,-35.26115 l -5.27059,-5.44716 H 65.729403 0 v -20 -20 h 51.333333 c 28.233334,0 51.333337,-0.31994 51.333337,-0.71098 0,-0.39106 -1.43006,-3.54106 -3.177895,-7 -9.066791,-17.94307 -14.677588,-44.81243 -14.677588,-70.28902 0,-45.75253 16.391073,-86.54309 47.917553,-119.2468 32.56414,-33.78013 75.73598,-52.187459 122.60459,-52.275349 41.32022,-0.07748 79.2877,13.360347 110.23922,39.016959 L 371.81175,128 h 27.38081 27.38081 l 0.37999,-13.66667 c 0.34944,-12.56855 0.59736,-13.6978 3.08549,-14.05414 3.38847,-0.48529 81.29448,45.24645 81.29448,47.72081 0,2.47436 -77.90601,48.20611 -81.29448,47.72081 -2.48813,-0.35634 -2.73605,-1.4856 -3.08549,-14.05414 L 426.57337,168 h -10.98773 -10.98772 l 6.31293,13 c 31.15019,64.14648 18.84068,140.74363 -30.99564,192.87332 -21.89542,22.90301 -50.52784,39.82265 -80.62268,47.64204 -14.42236,3.74728 -18.20614,4.18335 -39.29253,4.52823 -12.83333,0.20989 -25.13333,0.112 -27.33333,-0.21746 z m 37.63776,-40.5941 c 53.69477,-5.98732 97.18581,-43.28951 112.61484,-96.58956 2.71464,-9.37776 3.07165,-13.4153 3.00433,-33.9758 -0.0703,-21.43991 -0.36828,-24.2835 -3.67313,-35.04246 C 377.73224,204.91517 369.63996,188.64371 361.05217,177 l -6.63792,-9 h -75.8738 c -41.73058,0 -75.87378,0.3052 -75.87378,0.67821 0,0.37302 1.84273,3.22302 4.09496,6.33334 l 4.09496,5.65512 52.2707,0.66666 L 315.398,182 l 9.02503,4.44512 c 10.52814,5.18545 17.9721,13.56307 21.79408,24.52757 2.13877,6.13574 2.44956,11.51014 2.44956,42.36064 0,32.02956 -0.24935,36.01074 -2.66667,42.57799 -5.10056,13.85691 -20.04289,26.26117 -33.45568,27.77299 l -5.75904,0.64913 3.43228,4.49995 3.43228,4.49994 h -80.82492 c -44.45371,0 -80.82492,0.49459 -80.82492,1.09908 0,0.60448 4.13141,5.35524 9.18092,10.55722 25.15105,25.91052 55.06404,39.31364 92.53829,41.46365 2.04558,0.11733 9.50892,-0.4322 16.58522,-1.22125 z m 43.51376,-95.41384 3.51514,-3.51516 v -32.57251 c 0,-19.7904 -0.53873,-33.57913 -1.37285,-35.13771 C 312.59232,212.29936 309.95751,212 257.93288,212 h -48.86621 l -4.6,4.6 -4.60002,4.60001 0.40002,32.85088 0.4,32.8509 3.74101,3.21577 3.74103,3.21577 h 51.07716 51.07716 z m -75.7474,-12.19184 c -1.50726,-1.50727 -0.78864,-46.95968 0.74245,-46.95968 0.81396,0 11.36984,5.17269 23.45752,11.49485 17.87521,9.3492 21.64333,11.80404 20.18676,13.15123 -2.88284,2.66633 -43.57679,23.12353 -44.38673,22.3136 z"
         id="path338" />
      <path
         style="fill:#aad5d2;stroke-width:1.33333"
         d="m 234.17969,425.24703 c -34.5942,-4.79479 -65.94365,-19.32658 -92.84636,-43.03816 l -10,-8.81384 -65.666663,-0.0308 L 0,373.33333 v -20 -20 h 51.333333 c 28.233334,0 51.333337,-0.51701 51.333337,-1.1489 0,-0.63191 -1.87671,-5.28191 -4.170454,-10.33334 -2.293749,-5.05144 -5.959287,-16.08442 -8.145639,-24.51776 C 85.176107,277.37405 83.829617,247.74981 87.199217,228 99.391013,156.54175 151.44273,102.54344 222.97576,87.145823 c 15.64977,-3.368643 50.79945,-3.360451 66.28747,0.01545 25.58794,5.577365 47.71042,15.230657 66.0701,28.830127 5.86667,4.34559 11.9507,8.85105 13.52008,10.01213 2.28876,1.69332 8.28184,2.27288 30.28611,2.92879 l 27.43271,0.81772 0.38054,-14.54169 c 0.35194,-13.44781 0.58408,-14.57083 3.08608,-14.92916 3.38847,-0.485293 81.29448,45.24645 81.29448,47.72081 0,2.47436 -77.90601,48.20611 -81.29448,47.72081 -2.48813,-0.35634 -2.73605,-1.4856 -3.08549,-14.05414 L 426.57337,168 h -11.30156 -11.30157 l 5.34667,10.63401 c 20.52248,40.81718 23.41033,90.18246 7.85554,134.28387 -19.93268,56.51379 -68.20488,97.99357 -128.50578,110.42369 -12.83227,2.64519 -41.83267,3.65935 -54.48698,1.90546 z m 47.9896,-41.12687 c 51.67351,-10.66431 91.72376,-50.77131 103.30711,-103.45349 2.64772,-12.04208 2.30784,-40.45999 -0.63787,-53.33334 -4.3693,-19.09476 -14.96364,-41.32318 -25.63973,-53.7958 L 354.45887,168 h -75.8961 c -41.74286,0 -75.8961,0.26992 -75.8961,0.59983 0,0.3299 1.8425,3.3299 4.09446,6.66666 l 4.09446,6.06684 45.57221,0.0107 c 25.06471,0.005 49.39465,0.63032 54.06656,1.38839 15.27723,2.4789 26.72645,10.67582 33.1326,23.72082 L 347.33333,214 v 39.33333 39.33334 l -3.66654,6.95542 c -6.62736,12.57212 -18.47726,21.5227 -31.33346,23.66711 -3.11666,0.51985 -5.66666,1.49245 -5.66666,2.16133 0,0.66887 0.50369,1.21614 1.1193,1.21614 0.61563,0 1.80066,1.49536 2.63339,3.32301 l 1.51407,3.32303 -80.96604,0.34364 -80.96604,0.34365 10.666,11.16767 c 15.71273,16.45177 30.40808,26.08704 52.42782,34.37525 19.12046,7.19692 47.32456,9.06588 69.07412,4.57724 z M 314.30436,290.3056 318,286.6112 l 0.42723,-31.63893 c 0.46662,-34.55754 -0.18099,-38.2466 -7.28214,-41.4821 C 308.92084,212.47673 291.86591,212 257.83469,212 h -50.03982 l -3.89743,3.89744 -3.89744,3.89743 0.0296,33.10257 c 0.0263,29.35684 0.29032,33.42237 2.33333,35.92887 4.68366,5.74618 5.50226,5.82377 57.94138,5.49198 L 310.60867,294 l 3.69564,-3.6944 z M 238.66667,254.03445 V 230.51333 L 261,242.13208 c 12.28333,6.39031 22.52519,11.76667 22.75968,11.94745 0.32308,0.2491 -38.72885,20.64751 -44.09301,23.03158 -0.55,0.24445 -1,-10.14006 -1,-23.07666 z"
         id="path336" />
      <path
         style="fill:#8f8f8d;stroke-width:1.33333"
         d="m 234.17969,425.24703 c -34.5942,-4.79479 -65.94365,-19.32658 -92.84636,-43.03816 l -10,-8.81384 -65.666663,-0.0308 L 0,373.33333 v -20 -20 h 51.333333 c 28.233334,0 51.333337,-0.51701 51.333337,-1.1489 0,-0.63191 -1.87671,-5.28191 -4.170454,-10.33334 -2.293749,-5.05144 -5.959287,-16.08442 -8.145639,-24.51776 -5.17447,-19.95928 -6.52096,-49.58352 -3.15136,-69.33333 9.346927,-54.78397 42.437133,-100.23721 90.967103,-124.95383 23.15453,-11.792751 44.25807,-17.370322 70.50035,-18.632927 41.4416,-1.993896 81.99784,11.198856 114.42262,37.221137 l 9.57738,7.68626 L 400,128.99365 427.33333,128.66667 428,114.7734 c 0.37915,-7.90129 1.26865,-14.09204 2.06244,-14.35415 C 432.24856,99.697407 510,145.97693 510,148 c 0,2.02407 -77.75296,48.30297 -79.93756,47.5792 -0.81571,-0.27025 -1.55369,-6.09716 -1.77575,-14.02081 L 427.90671,168 h -11.96823 -11.96824 l 5.34667,10.63401 c 20.52248,40.81718 23.41033,90.18246 7.85554,134.28387 -19.93268,56.51379 -68.20488,97.99357 -128.50578,110.42369 -12.83227,2.64519 -41.83267,3.65935 -54.48698,1.90546 z m 47.9896,-41.12687 c 51.67351,-10.66431 91.72376,-50.77131 103.30711,-103.45349 2.64772,-12.04208 2.30784,-40.45999 -0.63787,-53.33334 -4.44388,-19.42066 -15.49134,-42.39398 -25.99004,-54.04653 L 354,167.90544 l -76.31347,0.38061 -76.31345,0.38062 4.31345,6.29033 4.31347,6.29035 46,0.0531 c 25.3,0.0292 49.82245,0.67331 54.49436,1.43138 15.27723,2.4789 26.72645,10.67582 33.1326,23.72082 L 347.33333,214 v 39.33333 39.33334 l -3.66654,6.95542 c -6.62736,12.57212 -18.47726,21.5227 -31.33346,23.66711 -3.11666,0.51985 -5.66666,1.49245 -5.66666,2.16133 0,0.66887 0.50369,1.21614 1.1193,1.21614 0.61563,0 1.80066,1.49536 2.63339,3.32301 l 1.51407,3.32303 -80.96604,0.34364 -80.96604,0.34365 10.666,11.16767 c 15.71273,16.45177 30.40808,26.08704 52.42782,34.37525 19.12046,7.19692 47.32456,9.06588 69.07412,4.57724 z M 314.30436,290.3056 318,286.6112 l 0.42723,-31.63893 c 0.46662,-34.55754 -0.18099,-38.2466 -7.28214,-41.4821 C 308.92084,212.47673 291.86591,212 257.83469,212 h -50.03982 l -3.89743,3.89744 -3.89744,3.89743 0.0296,33.10257 c 0.0263,29.35684 0.29032,33.42237 2.33333,35.92887 4.68366,5.74618 5.50226,5.82377 57.94138,5.49198 L 310.60867,294 l 3.69564,-3.6944 z M 238.66667,254.03445 V 230.51333 L 261,242.13208 c 12.28333,6.39031 22.52519,11.76667 22.75968,11.94745 0.32308,0.2491 -38.72885,20.64751 -44.09301,23.03158 -0.55,0.24445 -1,-10.14006 -1,-23.07666 z"
         id="path334" />
      <path
         style="fill:#8d8d7c;stroke-width:1.33333"
         d="m 237.33333,425.2822 c -35.98253,-4.38488 -71.02318,-20.47096 -97.0188,-44.53831 l -8.00428,-7.41056 H 66.155124 0 v -20 -20 H 51.949428 103.89886 L 99.193621,322.34025 C 76.648671,269.66733 82.138843,209.0944 113.76358,161.59035 c 16.93767,-25.44238 38.19353,-44.48568 64.90309,-58.14726 61.18864,-31.297141 134.10685,-23.204418 186.8517,20.73747 l 6.18504,5.15277 h 28.10319 28.10319 l 0.37844,-14.22486 c 0.21154,-7.95179 0.96642,-14.41901 1.71177,-14.66512 2.07329,-0.684595 80,45.63957 80,47.55665 0,1.91696 -77.92653,48.2412 -80,47.55684 -0.73809,-0.24361 -1.50296,-6.49292 -1.71331,-13.99845 L 427.90671,168 H 415.95336 C 409.37901,168 404,168.31332 404,168.69627 c 0,0.38294 2.32729,5.33294 5.17176,11 11.14127,22.19685 17.48419,49.63649 17.48419,75.63706 0,53.54711 -25.00524,103.71751 -67.8424,136.11866 -20.41174,15.43902 -50.75638,28.55352 -75.25646,32.52472 -12.52426,2.03005 -35.05598,2.66641 -46.22376,1.30549 z m 54,-43.19696 c 46.66196,-13.70512 79.9611,-47.57903 92.33206,-93.92577 2.98812,-11.19474 3.41926,-15.45482 3.38966,-33.4928 -0.0375,-22.83274 -1.81082,-32.12432 -9.7886,-51.2878 -3.7865,-9.09559 -12.8983,-24.21342 -19.52197,-32.38984 l -2.43916,-3.01096 -76.98923,0.34429 -76.98922,0.34431 4.49486,6.32184 4.49487,6.32185 51.17504,0.38709 c 50.55248,0.38239 51.27032,0.42611 59.00823,3.5936 9.44668,3.86696 18.99869,12.80795 23.54865,22.04228 3.26209,6.62056 3.28481,6.93411 3.28481,45.33334 0,36.68352 -0.14616,38.98277 -2.84977,44.82986 -5.85032,12.65254 -17.58021,22.29028 -30.85965,25.35554 -3.82648,0.88326 -6.95724,2.10288 -6.95724,2.71026 0,0.60739 0.50369,1.10434 1.1193,1.10434 0.61563,0 1.80066,1.49536 2.63339,3.32301 l 1.51407,3.32303 -80.82519,0.34364 -80.82519,0.34365 6.02496,7.05817 c 18.65318,21.852 43.75791,36.67014 73.02532,43.10339 16.91276,3.71759 45.53719,2.75899 62,-2.07632 z m 20.4733,-89.31857 c 6.34205,-3.27962 6.86004,-6.34014 6.86004,-40.53274 0,-35.1265 -0.22111,-36.12441 -8.7981,-39.7081 -6.6687,-2.78636 -95.9284,-2.7056 -102.62605,0.0928 -8.06785,3.37096 -8.77033,7.00129 -8.3102,42.94548 l 0.40101,31.32584 4.35438,3.88833 4.35436,3.88833 h 50.04518 c 40.70622,0 50.73082,-0.35456 53.71938,-1.9 z M 238.66667,253.99788 V 230.66243 L 261,242.20907 c 12.28333,6.35065 22.49391,11.66218 22.69017,11.8034 0.19626,0.14121 -8.80374,4.9201 -20,10.61976 -11.19626,5.69965 -20.92684,10.88908 -21.6235,11.53205 -0.69667,0.64299 -1.74667,1.16905 -2.33334,1.16905 -0.58666,0 -1.06666,-10.50096 -1.06666,-23.33545 z"
         id="path332" />
      <path
         style="fill:#798c8b;stroke-width:1.33333"
         d="m 238.66667,425.22487 c -36.67798,-4.249 -71.05323,-19.69495 -97.60278,-43.8562 l -8.93611,-8.13226 -66.063888,0.0721 L 0,373.38063 v -20.05407 -20.05407 l 52.000484,0.36375 c 28.600267,0.20007 52.000266,0.26693 51.999996,0.14857 -2.6e-4,-0.1184 -2.14059,-5.21522 -4.756287,-11.32641 -22.5984,-52.7978 -17.136074,-113.31784 14.519387,-160.86805 16.93767,-25.44238 38.19353,-44.48568 64.90309,-58.14726 61.18864,-31.297141 134.10685,-23.204418 186.8517,20.73747 l 6.18504,5.15277 h 28.10319 28.10319 l 0.37844,-14.22486 c 0.21154,-7.95179 0.96642,-14.41901 1.71177,-14.66512 2.07329,-0.684595 80,45.63957 80,47.55665 0,1.91696 -77.92653,48.2412 -80,47.55684 -0.73809,-0.24361 -1.50296,-6.49292 -1.71331,-13.99845 L 427.90671,168 H 415.95336 C 409.37901,168 404,168.31332 404,168.69627 c 0,0.38294 2.32729,5.33294 5.17176,11 2.84447,5.66705 7.04168,16.15224 9.32716,23.30042 25.89028,80.97586 -10.89763,167.51294 -87.16559,205.0417 -16.45721,8.098 -32.92669,13.54916 -48.46896,16.04249 -11.54097,1.85143 -33.2422,2.41313 -44.1977,1.14399 z m 49.8638,-41.76427 c 22.61776,-6.31632 41.27657,-16.59601 57.32134,-31.58005 13.40022,-12.51434 21.22468,-23.1202 29.01534,-39.32958 10.30968,-21.4505 12.24242,-30.45477 12.28168,-57.21764 0.0283,-19.2761 -0.40446,-24.26222 -2.8929,-33.33333 -3.68252,-13.42392 -14.01138,-34.794 -22.07221,-45.66667 L 356.00552,168 h -77.41479 c -61.57921,0 -77.20909,0.34092 -76.40925,1.66667 0.55304,0.91666 2.7312,4.06666 4.84035,7 l 3.83482,5.33333 52.905,0.66667 52.90502,0.66666 6.7202,3.54734 c 7.06317,3.7284 16.35177,12.83464 19.70405,19.31722 4.11296,7.95359 5.13523,19.25843 4.68497,51.80886 -0.4319,31.2231 -0.52604,32.17124 -3.9107,39.38742 -1.9075,4.0668 -5.39498,9.5887 -7.74998,12.2709 -4.50157,5.12701 -18.58273,12.98725 -23.32817,13.02201 -1.53288,0.0107 -3.627,0.55224 -4.6536,1.20224 -1.53561,0.97227 -1.33687,1.85517 1.12095,4.97957 l 2.98752,3.79778 -80.78762,0.34366 c -44.4332,0.18902 -80.78762,0.81924 -80.78762,1.40051 0,0.58127 3.14245,4.5826 6.98321,8.89184 17.96144,20.15229 44.80891,35.66164 71.68345,41.41039 11.89094,2.5436 48.36755,1.77184 59.19714,-1.25247 z m 23.27616,-90.69393 c 6.34205,-3.27962 6.86004,-6.34014 6.86004,-40.53274 0,-35.1265 -0.22111,-36.12441 -8.7981,-39.7081 -6.6687,-2.78636 -95.9284,-2.7056 -102.62605,0.0928 -8.06785,3.37096 -8.77033,7.00129 -8.3102,42.94548 l 0.40101,31.32584 4.35438,3.88833 4.35436,3.88833 h 50.04518 c 40.70622,0 50.73082,-0.35456 53.71938,-1.9 z m -72.26264,-16.33379 c -0.48252,-0.48253 -0.87732,-10.97828 -0.87732,-23.32389 V 230.66243 L 261,242.20907 c 12.28333,6.35065 22.49391,11.66218 22.69017,11.8034 0.19626,0.14121 -8.80374,4.92618 -20,10.63325 -11.19626,5.70707 -21.01204,10.89128 -21.81285,11.52048 -0.8008,0.6292 -1.8508,0.7492 -2.33333,0.26668 z"
         id="path330" />
      <path
         style="fill:#957d7b;stroke-width:1.33333"
         d="m 238.66667,425.22487 c -36.67798,-4.249 -71.05323,-19.69495 -97.60278,-43.8562 l -8.93611,-8.13226 -66.063888,0.0721 L 0,373.38063 v -20.05407 -20.05407 l 52.000484,0.36375 c 28.600267,0.20007 52.000266,0.26693 51.999996,0.14857 -2.6e-4,-0.1184 -2.14059,-5.21522 -4.756287,-11.32641 -22.5984,-52.7978 -17.136074,-113.31784 14.519387,-160.86805 16.93767,-25.44238 38.19353,-44.48568 64.90309,-58.14726 C 240.0776,72.032249 312.24048,80.143391 366,124.49945 L 372.66667,130 400.33333,129.63962 428,129.27923 v -13.97295 c 0,-11.91033 0.31441,-13.97295 2.12992,-13.97295 1.17147,0 10.92147,5.19166 21.66667,11.53703 10.74521,6.34536 28.37837,16.69536 39.1848,23 10.80642,6.30464 19.64493,11.76297 19.64112,12.12964 -0.004,0.36667 -4.04543,3.00264 -8.98139,5.85773 -4.93595,2.85508 -22.55287,13.20508 -39.14869,23 -16.59584,9.79491 -31.14584,17.80894 -32.33334,17.80894 -1.84596,0 -2.15909,-1.93372 -2.15909,-13.33334 V 168 h -12 c -6.6,0 -12,0.31332 -12,0.69627 0,0.38294 2.32729,5.33294 5.17176,11 2.84447,5.66705 7.04168,16.15224 9.32716,23.30042 25.89028,80.97586 -10.89763,167.51294 -87.16559,205.0417 -16.45721,8.098 -32.92669,13.54916 -48.46896,16.04249 -11.54097,1.85143 -33.2422,2.41313 -44.1977,1.14399 z m 49.8638,-41.76427 c 22.61776,-6.31632 41.27657,-16.59601 57.32134,-31.58005 13.40022,-12.51434 21.22468,-23.1202 29.01534,-39.32958 10.30968,-21.4505 12.24242,-30.45477 12.28168,-57.21764 0.0281,-19.19681 -0.41116,-24.29953 -2.86988,-33.33333 -3.62072,-13.30324 -15.59507,-37.62428 -23.30435,-47.33333 l -5.82289,-7.33334 -76.90919,0.35474 c -48.30381,0.2228 -76.90919,0.8335 -76.90919,1.642 0,0.70798 1.95,3.94284 4.33334,7.18856 l 4.33333,5.90132 53.33333,0.45669 53.33334,0.45669 6.7202,3.54734 c 7.06317,3.7284 16.35177,12.83464 19.70405,19.31722 4.11296,7.95359 5.13523,19.25843 4.68497,51.80886 -0.4319,31.2231 -0.52604,32.17124 -3.9107,39.38742 -1.9075,4.0668 -5.39498,9.5887 -7.74998,12.2709 -4.50157,5.12701 -18.58273,12.98725 -23.32817,13.02201 -1.53288,0.0107 -3.627,0.55224 -4.6536,1.20224 -1.53556,0.97224 -1.3366,1.85528 1.12201,4.97957 l 2.98859,3.79778 -29.12203,0.36154 c -16.0171,0.19886 -52.61312,0.19886 -81.32448,0 -59.07577,-0.40914 -54.75173,-1.50028 -43.53897,10.98671 17.54917,19.54349 44.60513,35.03601 71.07477,40.69815 11.89094,2.5436 48.36755,1.77184 59.19714,-1.25247 z m 23.27616,-90.69393 c 6.34205,-3.27962 6.86004,-6.34014 6.86004,-40.53274 0,-35.1265 -0.22111,-36.12441 -8.7981,-39.7081 -6.6687,-2.78636 -95.9284,-2.7056 -102.62605,0.0928 -8.06785,3.37096 -8.77033,7.00129 -8.3102,42.94548 l 0.40101,31.32584 4.35438,3.88833 4.35436,3.88833 h 50.04518 c 40.70622,0 50.73082,-0.35456 53.71938,-1.9 z m -72.26264,-16.33379 c -0.48252,-0.48253 -0.87732,-10.97828 -0.87732,-23.32389 V 230.66243 L 261,242.20907 c 12.28333,6.35065 22.49391,11.66218 22.69017,11.8034 0.19626,0.14121 -8.80374,4.92618 -20,10.63325 -11.19626,5.70707 -21.01204,10.89128 -21.81285,11.52048 -0.8008,0.6292 -1.8508,0.7492 -2.33333,0.26668 z"
         id="path328" />
      <path
         style="fill:#7f7f7f;stroke-width:1.33333"
         d="M 245.33333,425.80136 C 205.8536,422.58025 169.17349,406.94964 141.06389,381.36867 l -8.93611,-8.13226 -66.063888,0.0721 L 0,373.38063 v -20.05407 -20.05407 l 52.000484,0.36375 c 28.600267,0.20007 52.000266,0.26693 51.999996,0.14857 -2.6e-4,-0.1184 -2.14059,-5.21522 -4.756287,-11.32641 -22.5984,-52.7978 -17.136074,-113.31784 14.519387,-160.86805 16.93767,-25.44238 38.19353,-44.48568 64.90309,-58.14726 C 240.0776,72.032249 312.24048,80.143391 366,124.49945 L 372.66667,130 400.33333,129.63962 428,129.27923 v -13.97295 c 0,-11.91033 0.31441,-13.97295 2.12992,-13.97295 1.17147,0 10.92147,5.19166 21.66667,11.53703 10.74521,6.34536 28.37837,16.69536 39.1848,23 10.80642,6.30464 19.64493,11.76297 19.64112,12.12964 -0.004,0.36667 -4.04543,3.00264 -8.98139,5.85773 -4.93595,2.85508 -22.55287,13.20508 -39.14869,23 -16.59584,9.79491 -31.14584,17.80894 -32.33334,17.80894 -1.84596,0 -2.15909,-1.93372 -2.15909,-13.33334 V 168 h -12 c -6.6,0 -12,0.31332 -12,0.69627 0,0.38294 2.32729,5.33294 5.17176,11 11.14127,22.19685 17.48419,49.63649 17.48419,75.63706 0,43.60436 -16.3697,84.92299 -46.21348,116.64712 -24.9476,26.51946 -60.09679,45.57078 -94.4946,51.21732 -13.30692,2.1844 -31.47646,3.34915 -40.61454,2.60359 z m 43.19714,-42.34076 c 22.61776,-6.31632 41.27657,-16.59601 57.32134,-31.58005 13.40022,-12.51434 21.22468,-23.1202 29.01534,-39.32958 10.30968,-21.4505 12.24242,-30.45477 12.28168,-57.21764 0.0281,-19.19681 -0.41116,-24.29953 -2.86988,-33.33333 -3.62072,-13.30324 -15.59507,-37.62428 -23.30435,-47.33333 l -5.82289,-7.33334 -76.90919,0.35474 c -48.30381,0.2228 -76.90919,0.8335 -76.90919,1.642 0,0.70798 1.95,3.94284 4.33334,7.18856 l 4.33333,5.90132 53.33333,0.45669 53.33334,0.45669 6.7202,3.54734 c 7.06317,3.7284 16.35177,12.83464 19.70405,19.31722 4.11296,7.95359 5.13523,19.25843 4.68497,51.80886 -0.43153,31.19618 -0.5286,32.17596 -3.8961,39.32658 -1.89946,4.03334 -5.13248,9.31862 -7.1845,11.74507 -5.09344,6.02284 -15.81161,11.92019 -24.96325,13.73524 -6.65824,1.32055 -7.36019,1.74869 -5.65793,3.45095 1.06884,1.06884 2.56546,3.10577 3.32582,4.5265 1.36143,2.54387 0.15659,2.57779 -79.21088,2.22938 -73.0963,-0.3209 -80.48846,-0.1579 -79.46596,1.75216 0.62004,1.15828 4.01102,5.31732 7.53547,9.24229 17.54917,19.54349 44.60513,35.03601 71.07477,40.69815 11.89094,2.5436 48.36755,1.77184 59.19714,-1.25247 z m 23.27616,-90.69393 c 6.34205,-3.27962 6.86004,-6.34014 6.86004,-40.53274 0,-35.1265 -0.22111,-36.12441 -8.7981,-39.7081 -6.6687,-2.78636 -95.9284,-2.7056 -102.62605,0.0928 -8.06785,3.37096 -8.77033,7.00129 -8.3102,42.94548 l 0.40101,31.32584 4.35438,3.88833 4.35436,3.88833 h 50.04518 c 40.70622,0 50.73082,-0.35456 53.71938,-1.9 z M 238.66667,254 c 0,-12.1 0.3256,-22 0.72356,-22 0.39794,0 10.08292,4.89592 21.52214,10.87981 19.15591,10.02052 20.5994,11.02987 18.27646,12.77954 C 276.59967,257.60953 240.58143,276 239.35111,276 c -0.37644,0 -0.68444,-9.9 -0.68444,-22 z"
         id="path326" />
    </g>
  </g>
</svg>
